M48
;Layer_Color=9474304
;FILE_FORMAT=2:4
INCH,LZ
;TYPE=PLATED
T1F00S00C0.0280
T2F00S00C0.0320
T3F00S00C0.0420
T4F00S00C0.0530
T5F00S00C0.0550
T6F00S00C0.0620
T7F00S00C0.0700
T8F00S00C0.0910
T9F00S00C0.1250
%
T01
X0038Y-0275
Y-0249
X0039Y-0238
X0049Y-025016
Y-026984
X0068Y-0262
X0065Y-0238
X0079
X0105
X010316Y-0248
Y-026
X0106Y-0274
X0116
X0133Y-0275
X01425
X0152
Y-0249
X01425
X0133
X012284Y-0248
Y-026
X0128Y-023584
Y-021616
X0182Y-021016
Y-022984
X00725Y-029
X00735Y-03033
X007984Y-016
Y-0148
X006016
Y-016
X0096Y-0112
X0107Y-0098
X0096Y-0072
X0107Y-0058
X01201Y-00617
X01298
Y-00517
X01201
X00385Y-00655
Y-0072
X001584Y-0068
X00098Y-00734
X0004Y-0077
X-00035Y-00785
Y-00885
X-0014Y-0093
X-0024Y-0082
X-0014Y-0067
X-000384Y-0068
X00009Y-00589
X001Y-00584
X004Y-0106
Y-0146
Y-0158
Y-0198
X-0068Y-0093
X-0079Y-00865
X-0089
X-009Y-0075
X-008
X-0068Y-0067
X-00587Y-00705
X-01077Y-00617
Y-00517
X-01174
Y-00617
X-0146Y-0066
Y-00745
Y-00845
X-0157
Y-00745
Y-0064
Y-0054
X-0146Y-0056
X-0183Y-0054
Y-0064
Y-00745
Y-00845
X-0164Y-0026
X-01174Y-0042
X-01076
X-009Y-0039
X-008
Y-0049
X-009
X-009695Y-003195
X-009Y-0013
X-008
X-00049Y-002
X00049
X0013
Y-0012
X0039
Y-002
X0028Y-0042
X0008
X-0004
X-0024
X0082Y-0008
X0146Y-0007
Y-0033
X01299Y-0042
X01201
T02
X0061Y-0276
X0071
X0081
X0091
Y-0246
X0081
X0071
X0061
X0054Y-0202
Y-0192
Y-0182
Y-0172
X0084
Y-0182
Y-0192
Y-0202
X01064Y-0178
X0126
X01484
X0168
Y-0136
X01484
X0126
X01064
X0084
Y-0126
Y-0116
Y-0106
X007889Y-0084
X006511
X004489
X0054Y-0106
Y-0116
Y-0126
Y-0136
X003111Y-0084
X-0026Y-0094
X-0036
X-0046
X-0056
Y-0064
X-0046
X-0036
X-0026
T03
X00395Y-0304
X01045
X01175
X01825
X-0132Y-0042
Y-0032
Y-0022
X-005984Y-002016
Y-003
Y-003916
X-005
Y-003
X-004016
Y-003916
Y-0049
X-005
X-005984
X-005Y-002016
X-004016
X0102Y-0022
Y-0012
Y-0032
Y-0042
T04
X003941Y-0289
X008059
X011541
X015659
X0168Y-029059
X0182
Y-024941
X0168
X0178Y-011059
X015459Y-0108
X011341
X01333Y-00743
X0178Y-006941
X-014432Y-003368
X-015416
X-017384
X-018369
X-0164Y-0014
X007
X007984Y-003368
X008968
X006016
X005031
X01167Y-00294
T05
X-01042Y-00743
X-01208Y-00294
X-014432Y-0014
X-018369
X-0164Y-003368
X007
X008968Y-0014
X005031
T06
X0042Y-0221
X0052
X0062
X0086
X0096
X0106
X0142Y-022
Y-023
Y-021
X0164
Y-022
Y-023
T07
X-01089Y-012
X-00903Y-01084
X-00675
X-00489Y-012
X-00303Y-01084
X-00175
X00011Y-012
X00197Y-01084
X-01275
X-01403
X-01589Y-012
X-01775Y-01084
T08
X017Y-005452
Y-00305
X015189Y-00431
T09
X0021Y-0257
X0183Y-0157
X-0183
M30
