%FSTAX24Y24*%
%MOIN*%
G70*
G01*
G75*
G04 Layer_Color=65535*
%ADD10C,0.0200*%
%ADD11C,0.0220*%
%ADD12C,0.0160*%
%ADD13C,0.0100*%
%ADD14C,0.0150*%
%ADD15C,0.0120*%
%ADD16C,0.0300*%
%ADD17C,0.0250*%
%ADD18C,0.0450*%
%ADD19C,0.0420*%
%ADD20C,0.1000*%
%ADD21C,0.0350*%
%ADD22C,0.0500*%
%ADD23C,0.0600*%
%ADD24C,0.0700*%
%ADD25C,0.0400*%
%ADD26C,0.0550*%
%ADD27C,0.0380*%
%ADD28C,0.0750*%
%ADD29R,0.0559X0.1130*%
%ADD30C,0.0010*%
%ADD31C,0.0670*%
%ADD32O,0.0748X0.0984*%
%ADD33O,0.0787X0.0984*%
%ADD34O,0.0950X0.1400*%
%ADD35O,0.0900X0.1400*%
%ADD36O,0.1400X0.0950*%
%ADD37C,0.0750*%
%ADD38C,0.0580*%
%ADD39C,0.0640*%
%ADD40C,0.0660*%
%ADD41R,0.0660X0.0660*%
%ADD42C,0.0550*%
%ADD43O,0.0540X0.0580*%
%ADD44C,0.0540*%
%ADD45C,0.0500*%
%ADD46C,0.1600*%
%ADD47C,0.1450*%
%ADD48C,0.0700*%
%ADD49O,0.0740X0.1500*%
%ADD50O,0.1500X0.0740*%
%ADD51C,0.0600*%
%ADD52C,0.0800*%
%ADD53O,0.0550X0.0650*%
%ADD54R,0.0550X0.0650*%
%ADD55R,0.0580X0.0580*%
%ADD56O,0.0650X0.0550*%
%ADD57R,0.0650X0.0550*%
%ADD58R,0.0787X0.0787*%
%ADD59C,0.0787*%
%ADD60R,0.0787X0.0787*%
%ADD61R,0.0730X0.0800*%
%ADD62R,0.0690X0.0800*%
%ADD63O,0.0690X0.0800*%
%ADD64C,0.1370*%
%ADD65C,0.0630*%
%ADD66C,0.0079*%
%ADD67C,0.0118*%
%ADD68C,0.0080*%
%ADD69C,0.0090*%
%ADD70R,0.0315X0.1102*%
%ADD71R,0.1102X0.0315*%
D10*
X-002139Y-0193D02*
G03*
X-005181Y-0193I-001521J0D01*
G01*
D13*
X005711Y-007658D02*
G03*
X005665Y-00902I00149J-000732D01*
G01*
X008765Y-0084D02*
G03*
X008765Y-0084I-00157J0D01*
G01*
X00059Y0002D02*
G03*
X-00061Y0002I-0006J0D01*
G01*
X01359Y-0136D02*
G03*
X01359Y-0136I-00197J0D01*
G01*
X013419Y-014608D02*
G03*
X01346Y-01266I-001811J001013D01*
G01*
X01359Y-0178D02*
G03*
X01359Y-0178I-00197J0D01*
G01*
X013419Y-018808D02*
G03*
X01346Y-01686I-001811J001013D01*
G01*
X01779Y-0136D02*
G03*
X01779Y-0136I-00197J0D01*
G01*
X017619Y-014608D02*
G03*
X01766Y-01266I-001811J001013D01*
G01*
X01779Y-0178D02*
G03*
X01779Y-0178I-00197J0D01*
G01*
X017619Y-018808D02*
G03*
X01766Y-01686I-001811J001013D01*
G01*
X0056Y-02635D02*
G03*
X0056Y-02585I0J00025D01*
G01*
X-0061Y-00815D02*
G03*
X-0061Y-00765I0J00025D01*
G01*
X00665Y-0101D02*
G03*
X00715Y-0101I00025J0D01*
G01*
X00665Y-0167D02*
G03*
X00715Y-0167I00025J0D01*
G01*
X005365Y-0084D02*
G03*
X005365Y-0084I-00157J0D01*
G01*
X002311Y-007658D02*
G03*
X002265Y-00902I00149J-000732D01*
G01*
X004638Y-004786D02*
Y-003998D01*
X009362Y-004786D02*
Y-003998D01*
X009359Y-001D02*
Y-000219D01*
X004634D02*
X005622D01*
X004634Y-001D02*
Y-000219D01*
X008339D02*
Y001159D01*
X008378Y-000219D02*
X009362D01*
X004638Y-004786D02*
X009362D01*
X005661Y-000219D02*
Y001159D01*
X008339D01*
X-017739D02*
X-015061D01*
X-017739Y-000219D02*
Y001159D01*
X-018762Y-004786D02*
X-014038D01*
X-015022Y-000219D02*
X-014038D01*
X-015061D02*
Y001159D01*
X-018766Y-001D02*
Y-000219D01*
X-017778D01*
X-014041Y-001D02*
Y-000219D01*
X-014038Y-004786D02*
Y-003998D01*
X-018762Y-004786D02*
Y-003998D01*
X-018705Y-031094D02*
X-008075D01*
X-00807D02*
Y-029D01*
X-01871Y-031094D02*
Y-029D01*
Y-014D02*
Y-012D01*
X-00807Y-014D02*
Y-012D01*
X00293Y-014D02*
Y-012D01*
X-00771Y-014D02*
Y-012D01*
Y-031094D02*
Y-029D01*
X00293Y-031094D02*
Y-029D01*
X-007705Y-031094D02*
X002925D01*
X007995Y-00795D02*
Y-00729D01*
X007675Y-00762D02*
X008295D01*
X012084Y-02803D02*
Y-02677D01*
X010116Y-02803D02*
Y-02677D01*
X012084D01*
X010116Y-02803D02*
X012084D01*
X-0084Y-007D02*
Y-0054D01*
Y-007D02*
X-0076D01*
Y-0054D01*
X-0084D02*
X-0076D01*
X-0094Y-0034D02*
Y-0018D01*
Y-0034D02*
X-0086D01*
Y-0018D01*
X-0094D02*
X-0086D01*
X-0072Y-0088D02*
Y-0072D01*
Y-0088D02*
X-0064D01*
Y-0072D01*
X-0072D02*
X-0064D01*
X-0178Y-00885D02*
X-0162D01*
Y-00805D01*
X-0178D02*
X-0162D01*
X-0178Y-00885D02*
Y-00805D01*
Y-00785D02*
X-0162D01*
Y-00705D01*
X-0178D02*
X-0162D01*
X-0178Y-00785D02*
Y-00705D01*
X0018Y-0016D02*
X0034D01*
X0018Y-0024D02*
Y-0016D01*
Y-0024D02*
X0034D01*
Y-0016D01*
X-0094Y-007D02*
Y-0054D01*
Y-007D02*
X-0086D01*
Y-0054D01*
X-0094D02*
X-0086D01*
X-0018Y-0088D02*
Y-0072D01*
Y-0088D02*
X-001D01*
Y-0072D01*
X-0018D02*
X-001D01*
X-0178Y-0068D02*
X-0162D01*
Y-006D01*
X-0178D02*
X-0162D01*
X-0178Y-0068D02*
Y-006D01*
Y-0058D02*
X-0162D01*
Y-005D01*
X-0178D02*
X-0162D01*
X-0178Y-0058D02*
Y-005D01*
X0018Y-0008D02*
X0034D01*
X0018Y-0016D02*
Y-0008D01*
Y-0016D02*
X0034D01*
Y-0008D01*
X0084Y-0242D02*
X01D01*
Y-0234D01*
X0084D02*
X01D01*
X0084Y-0242D02*
Y-0234D01*
X0137Y-027D02*
Y-0254D01*
X0129D02*
X0137D01*
X0129Y-027D02*
Y-0254D01*
Y-027D02*
X0137D01*
X0142Y-0028D02*
Y-0012D01*
Y-0028D02*
X015D01*
Y-0012D01*
X0142D02*
X015D01*
X0044Y-0242D02*
X006D01*
Y-0234D01*
X0044D02*
X006D01*
X0044Y-0242D02*
Y-0234D01*
X01465Y-027D02*
Y-0254D01*
X01385D02*
X01465D01*
X01385Y-027D02*
Y-0254D01*
Y-027D02*
X01465D01*
X-0084Y-0034D02*
Y-0018D01*
Y-0034D02*
X-0076D01*
Y-0018D01*
X-0084D02*
X-0076D01*
X0148Y-027D02*
Y-0254D01*
Y-027D02*
X0156D01*
Y-0254D01*
X0148D02*
X0156D01*
X0034Y-027D02*
Y-0254D01*
Y-027D02*
X0042D01*
Y-0254D01*
X0034D02*
X0042D01*
X009883Y-025292D02*
Y-0243D01*
X012717Y-025292D02*
Y-0243D01*
X0044Y-024583D02*
X005392D01*
X0044Y-027417D02*
X005392D01*
X012308Y-024017D02*
X0133D01*
X012308Y-021183D02*
X0133D01*
X0177Y-020583D02*
X018692D01*
X0177Y-023417D02*
X018692D01*
X008417Y-016492D02*
Y-0155D01*
X005583Y-016492D02*
Y-0155D01*
X-000817Y-0073D02*
Y-006308D01*
X002017Y-0073D02*
Y-006308D01*
X008417Y-015292D02*
Y-0143D01*
X005583Y-015292D02*
Y-0143D01*
X012717Y-026492D02*
Y-0255D01*
X009883Y-026492D02*
Y-0255D01*
X01523Y-000019D02*
X01876D01*
X01797Y-00541D02*
X01877D01*
X01523D02*
X01606D01*
X01877D02*
Y-00009D01*
X01523Y-00331D02*
Y-00009D01*
X0032Y-0059D02*
Y-0045D01*
Y-0039D02*
Y-0025D01*
X0004Y-0059D02*
Y-0045D01*
Y-0039D02*
Y-0025D01*
X-0028Y-0039D02*
Y-0025D01*
Y-0059D02*
Y-0045D01*
X0Y-0039D02*
Y-0025D01*
Y-0059D02*
Y-0045D01*
X-0005Y-00144D02*
Y-00093D01*
X-0008Y-00006D02*
X0008D01*
Y-00177D02*
Y-00006D01*
X-0008Y-00179D02*
Y-00006D01*
X00059Y-00003D02*
Y00017D01*
X-00061Y-00002D02*
Y00017D01*
X01735Y-0304D02*
X01775D01*
X01225D02*
X01266D01*
X00955D02*
X00995D01*
X00445D02*
X00486D01*
X0076Y-02295D02*
X0116D01*
X0076D02*
Y-02102D01*
X0116Y-02295D02*
Y-02102D01*
X0032Y-02295D02*
X0072D01*
X0032D02*
Y-02102D01*
X0072Y-02295D02*
Y-02102D01*
X01335Y-024D02*
Y-02D01*
X01528D01*
X01335Y-024D02*
X01528D01*
X01555D02*
Y-02D01*
X01748D01*
X01555Y-024D02*
X01748D01*
X01034Y-01446D02*
X01098D01*
X01066Y-01478D02*
Y-01406D01*
X01034Y-01866D02*
X01098D01*
X01066Y-01898D02*
Y-01826D01*
X01454Y-01446D02*
X01518D01*
X01486Y-01478D02*
Y-01406D01*
X01454Y-01866D02*
X01518D01*
X01486Y-01898D02*
Y-01826D01*
X0115Y00169D02*
X0135D01*
X013Y-0005D02*
X01375D01*
X01125D02*
X01195D01*
X01125Y00309D02*
X01375D01*
Y-0005D02*
Y00309D01*
X01125Y-0005D02*
Y00309D01*
X01221Y-0004D02*
X01279D01*
X01221Y001D02*
X01279D01*
X01221Y-0025D02*
Y001D01*
X01151Y-0075D02*
Y-0036D01*
Y-0075D02*
X01271D01*
X01351Y-0068D02*
Y-0029D01*
X01231D02*
X01351D01*
X01279Y-0025D02*
Y001D01*
X-0143Y-0054D02*
X-0141D01*
X-0151D02*
X-0149D01*
X-0151Y-0068D02*
X-0149D01*
X-0143D02*
X-0141D01*
X-0143Y-00725D02*
X-0141D01*
X-0151D02*
X-0149D01*
X-0151Y-00865D02*
X-0149D01*
X-0143D02*
X-0141D01*
X-0077Y-00915D02*
Y-00895D01*
Y-00835D02*
Y-00815D01*
X-0091Y-00835D02*
Y-00815D01*
Y-00915D02*
Y-00895D01*
X-00005Y-00765D02*
X00015D01*
X-00085D02*
X-00065D01*
X-00085Y-00905D02*
X-00065D01*
X-00005D02*
X00015D01*
X0056Y-02515D02*
X0096D01*
X0056Y-02705D02*
Y-02635D01*
Y-02585D02*
Y-02515D01*
X0096Y-02705D02*
Y-02515D01*
X0056Y-02705D02*
X0096D01*
X-0061Y-00695D02*
X-0021D01*
X-0061Y-00885D02*
Y-00815D01*
Y-00765D02*
Y-00695D01*
X-0021Y-00885D02*
Y-00695D01*
X-0061Y-00885D02*
X-0021D01*
X00785Y-0141D02*
Y-0101D01*
X00595D02*
X00665D01*
X00715D02*
X00785D01*
X00595Y-0141D02*
X00785D01*
X00595D02*
Y-0101D01*
X-01755Y-01417D02*
Y-01312D01*
X-01807Y-01364D02*
X-01707D01*
X00595Y-0207D02*
Y-0167D01*
Y-0207D02*
X00785D01*
X00715Y-0167D02*
X00785D01*
X00595D02*
X00665D01*
X00785Y-0207D02*
Y-0167D01*
X-01096Y-0025D02*
Y001D01*
X-01144Y-0029D02*
X-01024D01*
Y-0068D02*
Y-0029D01*
X-01224Y-0075D02*
X-01104D01*
X-01224D02*
Y-0036D01*
X-01154Y-0025D02*
Y001D01*
X-01096D01*
X-01154Y-0004D02*
X-01096D01*
X-0125Y-0005D02*
Y00309D01*
X-01Y-0005D02*
Y00309D01*
X-0125D02*
X-01D01*
X-0125Y-0005D02*
X-0118D01*
X-01075D02*
X-01D01*
X-01225Y00169D02*
X-01025D01*
X004275Y-00762D02*
X004895D01*
X004595Y-00795D02*
Y-00729D01*
X-00658Y-0142D02*
Y-01315D01*
X-00709Y-01365D02*
X-00609D01*
X-00636Y-001947D02*
Y-0016D01*
X-00681Y-001947D02*
X-00642D01*
X-00364Y-00195D02*
Y-00165D01*
X-00358Y-00195D02*
X-003189D01*
X-00815Y001084D02*
Y005779D01*
X-007165Y006763D01*
Y006793D01*
X-00185Y001084D02*
Y005809D01*
X-002835Y006793D02*
X-00185Y005809D01*
X-007165Y006793D02*
X-002835D01*
X-00815Y001084D02*
X-00185D01*
X-0062Y001074D02*
Y005848D01*
X-0038Y001094D02*
Y005927D01*
X-00622D02*
X-00382D01*
X-00313Y-005727D02*
Y-00195D01*
X-00687Y-005727D02*
X-00313D01*
X-00687D02*
Y-001947D01*
X-003661Y000523D02*
Y001094D01*
X-006319Y000523D02*
Y001074D01*
X-00636Y-000047D02*
Y00025D01*
X-003642Y000012D02*
X-00364Y000248D01*
X-00313Y-003827D02*
Y-000047D01*
X-00687D02*
X-00313D01*
X-00687Y-003827D02*
Y-000047D01*
X010493Y-028313D02*
X01041Y-02823D01*
X010243D01*
X01016Y-028313D01*
Y-028647D01*
X010243Y-02873D01*
X01041D01*
X010493Y-028647D01*
X01066Y-02873D02*
X010826D01*
X010743D01*
Y-02823D01*
X01066Y-028313D01*
X000453Y-009047D02*
X00037Y-00913D01*
Y-009297D01*
X000453Y-00938D01*
X000787D01*
X00087Y-009297D01*
Y-00913D01*
X000787Y-009047D01*
X00087Y-00888D02*
Y-008714D01*
Y-008797D01*
X00037D01*
X000453Y-00888D01*
X000787Y-008464D02*
X00087Y-00838D01*
Y-008214D01*
X000787Y-00813D01*
X000453D01*
X00037Y-008214D01*
Y-00838D01*
X000453Y-008464D01*
X000537D01*
X00062Y-00838D01*
Y-00813D01*
X-010467Y-008683D02*
X-01055Y-0086D01*
X-010717D01*
X-0108Y-008683D01*
Y-009017D01*
X-010717Y-0091D01*
X-01055D01*
X-010467Y-009017D01*
X-009967Y-0091D02*
X-0103D01*
X-009967Y-008767D01*
Y-008683D01*
X-01005Y-0086D01*
X-010217D01*
X-0103Y-008683D01*
X-0098D02*
X-009717Y-0086D01*
X-00955D01*
X-009467Y-008683D01*
Y-009017D01*
X-00955Y-0091D01*
X-009717D01*
X-0098Y-009017D01*
Y-008683D01*
X-00776Y-00681D02*
X-00826D01*
Y-00656D01*
X-008177Y-006477D01*
X-00801D01*
X-007927Y-00656D01*
Y-00681D01*
Y-006643D02*
X-00776Y-006477D01*
Y-00631D02*
Y-006144D01*
Y-006227D01*
X-00826D01*
X-008177Y-00631D01*
X-007843Y-005894D02*
X-00776Y-00581D01*
Y-005644D01*
X-007843Y-00556D01*
X-008177D01*
X-00826Y-005644D01*
Y-00581D01*
X-008177Y-005894D01*
X-008093D01*
X-00801Y-00581D01*
Y-00556D01*
X011013Y-025813D02*
X01093Y-02573D01*
X010763D01*
X01068Y-025813D01*
Y-026147D01*
X010763Y-02623D01*
X01093D01*
X011013Y-026147D01*
X01118Y-02623D02*
X011346D01*
X011263D01*
Y-02573D01*
X01118Y-025813D01*
X01193Y-02573D02*
X011763Y-025813D01*
X011596Y-02598D01*
Y-026147D01*
X01168Y-02623D01*
X011846D01*
X01193Y-026147D01*
Y-026063D01*
X011846Y-02598D01*
X011596D01*
X-003Y-0119D02*
Y-0124D01*
X-00275D01*
X-002667Y-012317D01*
Y-012233D01*
X-00275Y-01215D01*
X-003D01*
X-00275D01*
X-002667Y-012067D01*
Y-011983D01*
X-00275Y-0119D01*
X-003D01*
X-0025D02*
X-002167D01*
X-002334D01*
Y-0124D01*
X-001667D02*
X-002D01*
X-001667Y-012067D01*
Y-011983D01*
X-00175Y-0119D01*
X-001917D01*
X-002Y-011983D01*
X-014Y-0119D02*
Y-0124D01*
X-01375D01*
X-013667Y-012317D01*
Y-012233D01*
X-01375Y-01215D01*
X-014D01*
X-01375D01*
X-013667Y-012067D01*
Y-011983D01*
X-01375Y-0119D01*
X-014D01*
X-0135D02*
X-013167D01*
X-013334D01*
Y-0124D01*
X-013D02*
X-012834D01*
X-012917D01*
Y-0119D01*
X-013Y-011983D01*
X-002217Y-002933D02*
X-0023Y-00285D01*
X-002467D01*
X-00255Y-002933D01*
Y-003267D01*
X-002467Y-00335D01*
X-0023D01*
X-002217Y-003267D01*
X-00205Y-00335D02*
X-001884D01*
X-001967D01*
Y-00285D01*
X-00205Y-002933D01*
X-001384Y-00335D02*
Y-00285D01*
X-001634Y-0031D01*
X-0013D01*
X-0029Y-0019D02*
X-002567D01*
X-0024Y-001733D01*
X-002567Y-001567D01*
X-0029D01*
X-0024Y-0014D02*
X-0029D01*
Y-00115D01*
X-002817Y-001067D01*
X-00265D01*
X-002567Y-00115D01*
Y-0014D01*
Y-001234D02*
X-0024Y-001067D01*
Y-0009D02*
Y-000734D01*
Y-000817D01*
X-0029D01*
X-002817Y-0009D01*
X01745Y-01925D02*
Y-019667D01*
X017533Y-01975D01*
X0177D01*
X017783Y-019667D01*
Y-01925D01*
X018283D02*
X018116Y-019333D01*
X01795Y-0195D01*
Y-019667D01*
X018033Y-01975D01*
X0182D01*
X018283Y-019667D01*
Y-019583D01*
X0182Y-0195D01*
X01795D01*
X0134Y-01935D02*
Y-019767D01*
X013483Y-01985D01*
X01365D01*
X013733Y-019767D01*
Y-01935D01*
X014233D02*
X0139D01*
Y-0196D01*
X014066Y-019517D01*
X01415D01*
X014233Y-0196D01*
Y-019767D01*
X01415Y-01985D01*
X013983D01*
X0139Y-019767D01*
X009Y-0138D02*
X009417D01*
X0095Y-013717D01*
Y-01355D01*
X009417Y-013467D01*
X009D01*
X009083Y-0133D02*
X009Y-013217D01*
Y-01305D01*
X009083Y-012967D01*
X009167D01*
X00925Y-01305D01*
Y-013134D01*
Y-01305D01*
X009333Y-012967D01*
X009417D01*
X0095Y-01305D01*
Y-013217D01*
X009417Y-0133D01*
X-005Y-01D02*
Y-010417D01*
X-004917Y-0105D01*
X-00475D01*
X-004667Y-010417D01*
Y-01D01*
X-0045Y-0105D02*
X-004334D01*
X-004417D01*
Y-01D01*
X-0045Y-010083D01*
X013083Y-002167D02*
X013Y-00225D01*
Y-002417D01*
X013083Y-0025D01*
X013167D01*
X01325Y-002417D01*
Y-00225D01*
X013333Y-002167D01*
X013417D01*
X0135Y-00225D01*
Y-002417D01*
X013417Y-0025D01*
X0135Y-002D02*
Y-001834D01*
Y-001917D01*
X013D01*
X013083Y-002D01*
X-00875Y-00318D02*
X-00925D01*
Y-00293D01*
X-009167Y-002847D01*
X-009D01*
X-008917Y-00293D01*
Y-00318D01*
Y-003013D02*
X-00875Y-002847D01*
Y-002347D02*
Y-00268D01*
X-009083Y-002347D01*
X-009167D01*
X-00925Y-00243D01*
Y-002597D01*
X-009167Y-00268D01*
X-00875Y-00218D02*
Y-002014D01*
Y-002097D01*
X-00925D01*
X-009167Y-00218D01*
X-00656Y-00869D02*
X-00706D01*
Y-00844D01*
X-006977Y-008357D01*
X-00681D01*
X-006727Y-00844D01*
Y-00869D01*
Y-008523D02*
X-00656Y-008357D01*
Y-007857D02*
Y-00819D01*
X-006893Y-007857D01*
X-006977D01*
X-00706Y-00794D01*
Y-008107D01*
X-006977Y-00819D01*
X-00656Y-007357D02*
Y-00769D01*
X-006893Y-007357D01*
X-006977D01*
X-00706Y-00744D01*
Y-007607D01*
X-006977Y-00769D01*
X00425Y-01335D02*
X00375D01*
Y-0131D01*
X003833Y-013017D01*
X004D01*
X004083Y-0131D01*
Y-01335D01*
Y-013183D02*
X00425Y-013017D01*
Y-01285D02*
Y-012684D01*
Y-012767D01*
X00375D01*
X003833Y-01285D01*
Y-012434D02*
X00375Y-01235D01*
Y-012184D01*
X003833Y-0121D01*
X003917D01*
X004Y-012184D01*
X004083Y-0121D01*
X004167D01*
X00425Y-012184D01*
Y-01235D01*
X004167Y-012434D01*
X004083D01*
X004Y-01235D01*
X003917Y-012434D01*
X003833D01*
X004Y-01235D02*
Y-012184D01*
X-01764Y-0087D02*
Y-0082D01*
X-01739D01*
X-017307Y-008283D01*
Y-00845D01*
X-01739Y-008533D01*
X-01764D01*
X-017473D02*
X-017307Y-0087D01*
X-016807D02*
X-01714D01*
X-016807Y-008367D01*
Y-008283D01*
X-01689Y-0082D01*
X-017057D01*
X-01714Y-008283D01*
X-01664D02*
X-016557Y-0082D01*
X-01639D01*
X-016307Y-008283D01*
Y-008617D01*
X-01639Y-0087D01*
X-016557D01*
X-01664Y-008617D01*
Y-008283D01*
X-0174Y-00771D02*
Y-00721D01*
X-01715D01*
X-017067Y-007293D01*
Y-00746D01*
X-01715Y-007543D01*
X-0174D01*
X-017233D02*
X-017067Y-00771D01*
X-0169Y-007293D02*
X-016817Y-00721D01*
X-01665D01*
X-016567Y-007293D01*
Y-007377D01*
X-01665Y-00746D01*
X-016734D01*
X-01665D01*
X-016567Y-007543D01*
Y-007627D01*
X-01665Y-00771D01*
X-016817D01*
X-0169Y-007627D01*
X00195Y-00225D02*
Y-00175D01*
X0022D01*
X002283Y-001833D01*
Y-002D01*
X0022Y-002083D01*
X00195D01*
X002117D02*
X002283Y-00225D01*
X00245D02*
X002616D01*
X002533D01*
Y-00175D01*
X00245Y-001833D01*
X002866D02*
X00295Y-00175D01*
X003116D01*
X0032Y-001833D01*
Y-001917D01*
X003116Y-002D01*
X003033D01*
X003116D01*
X0032Y-002083D01*
Y-002167D01*
X003116Y-00225D01*
X00295D01*
X002866Y-002167D01*
X0043Y-0184D02*
X0038D01*
Y-01815D01*
X003883Y-018067D01*
X00405D01*
X004133Y-01815D01*
Y-0184D01*
Y-018233D02*
X0043Y-018067D01*
Y-0179D02*
Y-017734D01*
Y-017817D01*
X0038D01*
X003883Y-0179D01*
X0038Y-01715D02*
Y-017484D01*
X00405D01*
X003967Y-017317D01*
Y-017234D01*
X00405Y-01715D01*
X004217D01*
X0043Y-017234D01*
Y-0174D01*
X004217Y-017484D01*
X-00875Y-00684D02*
X-00925D01*
Y-00659D01*
X-009167Y-006507D01*
X-009D01*
X-008917Y-00659D01*
Y-00684D01*
Y-006673D02*
X-00875Y-006507D01*
Y-00634D02*
Y-006174D01*
Y-006257D01*
X-00925D01*
X-009167Y-00634D01*
X-00925Y-005924D02*
Y-00559D01*
X-009167D01*
X-008833Y-005924D01*
X-00875D01*
X-00117Y-00862D02*
X-00167D01*
Y-00837D01*
X-001587Y-008287D01*
X-00142D01*
X-001337Y-00837D01*
Y-00862D01*
Y-008453D02*
X-00117Y-008287D01*
Y-00812D02*
Y-007954D01*
Y-008037D01*
X-00167D01*
X-001587Y-00812D01*
X-00167Y-00737D02*
X-001587Y-007537D01*
X-00142Y-007704D01*
X-001253D01*
X-00117Y-00762D01*
Y-007454D01*
X-001253Y-00737D01*
X-001337D01*
X-00142Y-007454D01*
Y-007704D01*
X0099Y-0098D02*
X0094D01*
Y-00955D01*
X009483Y-009467D01*
X00965D01*
X009733Y-00955D01*
Y-0098D01*
Y-009633D02*
X0099Y-009467D01*
Y-0093D02*
Y-009134D01*
Y-009217D01*
X0094D01*
X009483Y-0093D01*
X0099Y-008884D02*
Y-008717D01*
Y-0088D01*
X0094D01*
X009483Y-008884D01*
X-01764Y-00663D02*
Y-00613D01*
X-01739D01*
X-017307Y-006213D01*
Y-00638D01*
X-01739Y-006463D01*
X-01764D01*
X-017473D02*
X-017307Y-00663D01*
X-01714D02*
X-016974D01*
X-017057D01*
Y-00613D01*
X-01714Y-006213D01*
X-016474Y-00663D02*
Y-00613D01*
X-016724Y-00638D01*
X-01639D01*
X-01737Y-00563D02*
Y-00513D01*
X-01712D01*
X-017037Y-005213D01*
Y-00538D01*
X-01712Y-005463D01*
X-01737D01*
X-017203D02*
X-017037Y-00563D01*
X-01687Y-00513D02*
X-016537D01*
Y-005213D01*
X-01687Y-005547D01*
Y-00563D01*
X00195Y-00145D02*
Y-00095D01*
X0022D01*
X002283Y-001033D01*
Y-0012D01*
X0022Y-001283D01*
X00195D01*
X002117D02*
X002283Y-00145D01*
X00245D02*
X002616D01*
X002533D01*
Y-00095D01*
X00245Y-001033D01*
X0032Y-00145D02*
X002866D01*
X0032Y-001117D01*
Y-001033D01*
X003116Y-00095D01*
X00295D01*
X002866Y-001033D01*
X011Y-0084D02*
X0105D01*
Y-00815D01*
X010583Y-008067D01*
X01075D01*
X010833Y-00815D01*
Y-0084D01*
Y-008233D02*
X011Y-008067D01*
Y-0079D02*
Y-007734D01*
Y-007817D01*
X0105D01*
X010583Y-0079D01*
Y-007484D02*
X0105Y-0074D01*
Y-007234D01*
X010583Y-00715D01*
X010917D01*
X011Y-007234D01*
Y-0074D01*
X010917Y-007484D01*
X010583D01*
X00878Y-02405D02*
Y-02355D01*
X00903D01*
X009113Y-023633D01*
Y-0238D01*
X00903Y-023883D01*
X00878D01*
X008947D02*
X009113Y-02405D01*
X00928Y-023967D02*
X009363Y-02405D01*
X00953D01*
X009613Y-023967D01*
Y-023633D01*
X00953Y-02355D01*
X009363D01*
X00928Y-023633D01*
Y-023717D01*
X009363Y-0238D01*
X009613D01*
X01355Y-0266D02*
X01305D01*
Y-02635D01*
X013133Y-026267D01*
X0133D01*
X013383Y-02635D01*
Y-0266D01*
Y-026433D02*
X01355Y-026267D01*
X013133Y-0261D02*
X01305Y-026017D01*
Y-02585D01*
X013133Y-025767D01*
X013217D01*
X0133Y-02585D01*
X013383Y-025767D01*
X013467D01*
X01355Y-02585D01*
Y-026017D01*
X013467Y-0261D01*
X013383D01*
X0133Y-026017D01*
X013217Y-0261D01*
X013133D01*
X0133Y-026017D02*
Y-02585D01*
X0149Y-0024D02*
X0144D01*
Y-00215D01*
X014483Y-002067D01*
X01465D01*
X014733Y-00215D01*
Y-0024D01*
Y-002233D02*
X0149Y-002067D01*
X0144Y-001567D02*
X014483Y-001734D01*
X01465Y-0019D01*
X014817D01*
X0149Y-001817D01*
Y-00165D01*
X014817Y-001567D01*
X014733D01*
X01465Y-00165D01*
Y-0019D01*
X00476Y-02405D02*
Y-02355D01*
X00501D01*
X005093Y-023633D01*
Y-0238D01*
X00501Y-023883D01*
X00476D01*
X004927D02*
X005093Y-02405D01*
X005593Y-02355D02*
X00526D01*
Y-0238D01*
X005426Y-023717D01*
X00551D01*
X005593Y-0238D01*
Y-023967D01*
X00551Y-02405D01*
X005343D01*
X00526Y-023967D01*
X0145Y-02655D02*
X014D01*
Y-0263D01*
X014083Y-026217D01*
X01425D01*
X014333Y-0263D01*
Y-02655D01*
Y-026383D02*
X0145Y-026217D01*
Y-0258D02*
X014D01*
X01425Y-02605D01*
Y-025717D01*
X00518Y-03065D02*
Y-03015D01*
X00543D01*
X005513Y-030233D01*
Y-0304D01*
X00543Y-030483D01*
X00518D01*
X005347D02*
X005513Y-03065D01*
X006013D02*
X00568D01*
X006013Y-030317D01*
Y-030233D01*
X00593Y-03015D01*
X005763D01*
X00568Y-030233D01*
X01296Y-03065D02*
Y-03015D01*
X01321D01*
X013293Y-030233D01*
Y-0304D01*
X01321Y-030483D01*
X01296D01*
X013127D02*
X013293Y-03065D01*
X01346D02*
X013626D01*
X013543D01*
Y-03015D01*
X01346Y-030233D01*
X003483Y-020667D02*
Y-020333D01*
X0034Y-02025D01*
X003233D01*
X00315Y-020333D01*
Y-020667D01*
X003233Y-02075D01*
X0034D01*
X003317Y-020583D02*
X003483Y-02075D01*
X0034D02*
X003483Y-020667D01*
X003983Y-02075D02*
X00365D01*
X003983Y-020417D01*
Y-020333D01*
X0039Y-02025D01*
X003733D01*
X00365Y-020333D01*
X011333Y-020667D02*
Y-020333D01*
X01125Y-02025D01*
X011083D01*
X011Y-020333D01*
Y-020667D01*
X011083Y-02075D01*
X01125D01*
X011167Y-020583D02*
X011333Y-02075D01*
X01125D02*
X011333Y-020667D01*
X0115Y-02075D02*
X011666D01*
X011583D01*
Y-02025D01*
X0115Y-020333D01*
X-01951Y-000867D02*
Y-001033D01*
Y-00095D01*
X-019093D01*
X-01901Y-001033D01*
Y-001117D01*
X-019093Y-0012D01*
X-01901Y-000367D02*
Y-0007D01*
X-019343Y-000367D01*
X-019427D01*
X-01951Y-00045D01*
Y-000617D01*
X-019427Y-0007D01*
X0039Y-004467D02*
Y-004633D01*
Y-00455D01*
X004317D01*
X0044Y-004633D01*
Y-004717D01*
X004317Y-0048D01*
X003983Y-0043D02*
X0039Y-004217D01*
Y-00405D01*
X003983Y-003967D01*
X004067D01*
X00415Y-00405D01*
Y-004134D01*
Y-00405D01*
X004233Y-003967D01*
X004317D01*
X0044Y-00405D01*
Y-004217D01*
X004317Y-0043D01*
X01905Y-000767D02*
Y-000933D01*
Y-00085D01*
X019467D01*
X01955Y-000933D01*
Y-001017D01*
X019467Y-0011D01*
X01955Y-0006D02*
Y-000434D01*
Y-000517D01*
X01905D01*
X019133Y-0006D01*
X-0018Y-0004D02*
Y-0009D01*
X-00155D01*
X-001467Y-000817D01*
Y-000483D01*
X-00155Y-0004D01*
X-0018D01*
X-0013D02*
X-000967D01*
Y-000483D01*
X-0013Y-000817D01*
Y-0009D01*
X00565Y-02865D02*
Y-02915D01*
X0059D01*
X005983Y-029067D01*
Y-028733D01*
X0059Y-02865D01*
X00565D01*
X006483D02*
X006316Y-028733D01*
X00615Y-0289D01*
Y-029067D01*
X006233Y-02915D01*
X0064D01*
X006483Y-029067D01*
Y-028983D01*
X0064Y-0289D01*
X00615D01*
X01655Y-0275D02*
X01705D01*
Y-02725D01*
X016967Y-027167D01*
X016633D01*
X01655Y-02725D01*
Y-0275D01*
Y-026667D02*
Y-027D01*
X0168D01*
X016717Y-026834D01*
Y-02675D01*
X0168Y-026667D01*
X016967D01*
X01705Y-02675D01*
Y-026917D01*
X016967Y-027D01*
X01656Y-00953D02*
X01706D01*
Y-00928D01*
X016977Y-009197D01*
X016643D01*
X01656Y-00928D01*
Y-00953D01*
X01706Y-00878D02*
X01656D01*
X01681Y-00903D01*
Y-008697D01*
X01284Y-00955D02*
Y-01005D01*
X01309D01*
X013173Y-009967D01*
Y-009633D01*
X01309Y-00955D01*
X01284D01*
X01334Y-009633D02*
X013423Y-00955D01*
X01359D01*
X013673Y-009633D01*
Y-009717D01*
X01359Y-0098D01*
X013506D01*
X01359D01*
X013673Y-009883D01*
Y-009967D01*
X01359Y-01005D01*
X013423D01*
X01334Y-009967D01*
X01315Y-02865D02*
Y-02915D01*
X0134D01*
X013483Y-029067D01*
Y-028733D01*
X0134Y-02865D01*
X01315D01*
X013983Y-02915D02*
X01365D01*
X013983Y-028817D01*
Y-028733D01*
X0139Y-02865D01*
X013733D01*
X01365Y-028733D01*
X01795Y-02725D02*
X01845D01*
Y-027D01*
X018367Y-026917D01*
X018033D01*
X01795Y-027D01*
Y-02725D01*
X01845Y-02675D02*
Y-026584D01*
Y-026667D01*
X01795D01*
X018033Y-02675D01*
X-013807Y-008237D02*
X-01389Y-00832D01*
Y-008487D01*
X-013807Y-00857D01*
X-013473D01*
X-01339Y-008487D01*
Y-00832D01*
X-013473Y-008237D01*
X-01339Y-00807D02*
Y-007904D01*
Y-007987D01*
X-01389D01*
X-013807Y-00807D01*
X-01339Y-00732D02*
Y-007654D01*
X-013723Y-00732D01*
X-013807D01*
X-01389Y-007404D01*
Y-00757D01*
X-013807Y-007654D01*
X001883Y-002983D02*
X0018Y-0029D01*
X001633D01*
X00155Y-002983D01*
Y-003317D01*
X001633Y-0034D01*
X0018D01*
X001883Y-003317D01*
X00205Y-0034D02*
X002216D01*
X002133D01*
Y-0029D01*
X00205Y-002983D01*
X002466D02*
X00255Y-0029D01*
X002716D01*
X0028Y-002983D01*
Y-003067D01*
X002716Y-00315D01*
X002633D01*
X002716D01*
X0028Y-003233D01*
Y-003317D01*
X002716Y-0034D01*
X00255D01*
X002466Y-003317D01*
X-013767Y-006287D02*
X-01385Y-00637D01*
Y-006537D01*
X-013767Y-00662D01*
X-013433D01*
X-01335Y-006537D01*
Y-00637D01*
X-013433Y-006287D01*
X-01335Y-00612D02*
Y-005954D01*
Y-006037D01*
X-01385D01*
X-013767Y-00612D01*
X-01335Y-005704D02*
Y-005537D01*
Y-00562D01*
X-01385D01*
X-013767Y-005704D01*
X006733Y-014633D02*
X00665Y-01455D01*
X006483D01*
X0064Y-014633D01*
Y-014967D01*
X006483Y-01505D01*
X00665D01*
X006733Y-014967D01*
X0069Y-01505D02*
X007066D01*
X006983D01*
Y-01455D01*
X0069Y-014633D01*
X007316D02*
X0074Y-01455D01*
X007566D01*
X00765Y-014633D01*
Y-014717D01*
X007566Y-0148D01*
X00765Y-014883D01*
Y-014967D01*
X007566Y-01505D01*
X0074D01*
X007316Y-014967D01*
Y-014883D01*
X0074Y-0148D01*
X007316Y-014717D01*
Y-014633D01*
X0074Y-0148D02*
X007566D01*
X007133Y-009083D02*
X00705Y-009D01*
X006883D01*
X0068Y-009083D01*
Y-009417D01*
X006883Y-0095D01*
X00705D01*
X007133Y-009417D01*
X0073Y-009083D02*
X007383Y-009D01*
X00755D01*
X007633Y-009083D01*
Y-009167D01*
X00755Y-00925D01*
X007633Y-009333D01*
Y-009417D01*
X00755Y-0095D01*
X007383D01*
X0073Y-009417D01*
Y-009333D01*
X007383Y-00925D01*
X0073Y-009167D01*
Y-009083D01*
X007383Y-00925D02*
X00755D01*
X006733Y-015883D02*
X00665Y-0158D01*
X006483D01*
X0064Y-015883D01*
Y-016217D01*
X006483Y-0163D01*
X00665D01*
X006733Y-016217D01*
X0069Y-0163D02*
X007066D01*
X006983D01*
Y-0158D01*
X0069Y-015883D01*
X007316Y-0158D02*
X00765D01*
Y-015883D01*
X007316Y-016217D01*
Y-0163D01*
X018083Y-022067D02*
X018Y-02215D01*
Y-022317D01*
X018083Y-0224D01*
X018417D01*
X0185Y-022317D01*
Y-02215D01*
X018417Y-022067D01*
X018Y-0219D02*
Y-021567D01*
X018083D01*
X018417Y-0219D01*
X0185D01*
X015633Y-016783D02*
X01555Y-0167D01*
X015383D01*
X0153Y-016783D01*
Y-017117D01*
X015383Y-0172D01*
X01555D01*
X015633Y-017117D01*
X016133Y-0167D02*
X0158D01*
Y-01695D01*
X015966Y-016867D01*
X01605D01*
X016133Y-01695D01*
Y-017117D01*
X01605Y-0172D01*
X015883D01*
X0158Y-017117D01*
X015783Y-012483D02*
X0157Y-0124D01*
X015533D01*
X01545Y-012483D01*
Y-012817D01*
X015533Y-0129D01*
X0157D01*
X015783Y-012817D01*
X01595Y-012483D02*
X016033Y-0124D01*
X0162D01*
X016283Y-012483D01*
Y-012567D01*
X0162Y-01265D01*
X016116D01*
X0162D01*
X016283Y-012733D01*
Y-012817D01*
X0162Y-0129D01*
X016033D01*
X01595Y-012817D01*
X012683Y-022667D02*
X0126Y-02275D01*
Y-022917D01*
X012683Y-023D01*
X013017D01*
X0131Y-022917D01*
Y-02275D01*
X013017Y-022667D01*
X0126Y-022167D02*
X012683Y-022334D01*
X01285Y-0225D01*
X013017D01*
X0131Y-022417D01*
Y-02225D01*
X013017Y-022167D01*
X012933D01*
X01285Y-02225D01*
Y-0225D01*
X011583Y-016683D02*
X0115Y-0166D01*
X011333D01*
X01125Y-016683D01*
Y-017017D01*
X011333Y-0171D01*
X0115D01*
X011583Y-017017D01*
X012Y-0171D02*
Y-0166D01*
X01175Y-01685D01*
X012083D01*
X011683Y-012383D02*
X0116Y-0123D01*
X011433D01*
X01135Y-012383D01*
Y-012717D01*
X011433Y-0128D01*
X0116D01*
X011683Y-012717D01*
X012183Y-0128D02*
X01185D01*
X012183Y-012467D01*
Y-012383D01*
X0121Y-0123D01*
X011933D01*
X01185Y-012383D01*
X003733Y-009083D02*
X00365Y-009D01*
X003483D01*
X0034Y-009083D01*
Y-009417D01*
X003483Y-0095D01*
X00365D01*
X003733Y-009417D01*
X0039D02*
X003983Y-0095D01*
X00415D01*
X004233Y-009417D01*
Y-009083D01*
X00415Y-009D01*
X003983D01*
X0039Y-009083D01*
Y-009167D01*
X003983Y-00925D01*
X004233D01*
X0086Y-0282D02*
Y-028617D01*
X008683Y-0287D01*
X00885D01*
X008933Y-028617D01*
Y-0282D01*
X009433Y-0287D02*
X0091D01*
X009433Y-028367D01*
Y-028283D01*
X00935Y-0282D01*
X009183D01*
X0091Y-028283D01*
X011083Y-024583D02*
X011Y-0245D01*
X010833D01*
X01075Y-024583D01*
Y-024917D01*
X010833Y-025D01*
X011D01*
X011083Y-024917D01*
X011583Y-025D02*
X01125D01*
X011583Y-024667D01*
Y-024583D01*
X0115Y-0245D01*
X011333D01*
X01125Y-024583D01*
X01175Y-025D02*
X011916D01*
X011833D01*
Y-0245D01*
X01175Y-024583D01*
X-01364Y-001357D02*
Y-000857D01*
X-01339D01*
X-013307Y-000941D01*
Y-001107D01*
X-01339Y-001191D01*
X-01364D01*
X-01314Y-001357D02*
X-012973D01*
X-013057D01*
Y-000857D01*
X-01314Y-000941D01*
X0098Y-0054D02*
Y-0049D01*
X01005D01*
X010133Y-004983D01*
Y-00515D01*
X01005Y-005233D01*
X0098D01*
X010633Y-0054D02*
X0103D01*
X010633Y-005067D01*
Y-004983D01*
X01055Y-0049D01*
X010383D01*
X0103Y-004983D01*
X-00774Y-00329D02*
X-00824D01*
Y-00304D01*
X-008157Y-002957D01*
X-00799D01*
X-007907Y-00304D01*
Y-00329D01*
Y-003123D02*
X-00774Y-002957D01*
Y-002457D02*
Y-00279D01*
X-008073Y-002457D01*
X-008157D01*
X-00824Y-00254D01*
Y-002707D01*
X-008157Y-00279D01*
Y-00229D02*
X-00824Y-002207D01*
Y-00204D01*
X-008157Y-001957D01*
X-008073D01*
X-00799Y-00204D01*
Y-002124D01*
Y-00204D01*
X-007907Y-001957D01*
X-007823D01*
X-00774Y-00204D01*
Y-002207D01*
X-007823Y-00229D01*
X01545Y-02685D02*
X01495D01*
Y-0266D01*
X015033Y-026517D01*
X0152D01*
X015283Y-0266D01*
Y-02685D01*
Y-026683D02*
X01545Y-026517D01*
Y-026017D02*
Y-02635D01*
X015117Y-026017D01*
X015033D01*
X01495Y-0261D01*
Y-026267D01*
X015033Y-02635D01*
X01545Y-0256D02*
X01495D01*
X0152Y-02585D01*
Y-025517D01*
X00407Y-02685D02*
X00357D01*
Y-0266D01*
X003653Y-026517D01*
X00382D01*
X003903Y-0266D01*
Y-02685D01*
Y-026683D02*
X00407Y-026517D01*
Y-026017D02*
Y-02635D01*
X003737Y-026017D01*
X003653D01*
X00357Y-0261D01*
Y-026267D01*
X003653Y-02635D01*
X00357Y-025517D02*
Y-02585D01*
X00382D01*
X003737Y-025684D01*
Y-0256D01*
X00382Y-025517D01*
X003987D01*
X00407Y-0256D01*
Y-025767D01*
X003987Y-02585D01*
X-010617Y-002167D02*
X-0107Y-00225D01*
Y-002417D01*
X-010617Y-0025D01*
X-010533D01*
X-01045Y-002417D01*
Y-00225D01*
X-010367Y-002167D01*
X-010283D01*
X-0102Y-00225D01*
Y-002417D01*
X-010283Y-0025D01*
X-0102Y-001667D02*
Y-002D01*
X-010533Y-001667D01*
X-010617D01*
X-0107Y-00175D01*
Y-001917D01*
X-010617Y-002D01*
X0091Y-0204D02*
X009517D01*
X0096Y-020317D01*
Y-02015D01*
X009517Y-020067D01*
X0091D01*
X0096Y-01965D02*
X0091D01*
X00935Y-0199D01*
Y-019567D01*
X-00695Y-00332D02*
Y-003153D01*
Y-003237D01*
X-00745D01*
X-007367Y-00332D01*
X-00745Y-00257D02*
Y-002903D01*
X-0072D01*
X-007283Y-002737D01*
Y-002654D01*
X-0072Y-00257D01*
X-007033D01*
X-00695Y-002654D01*
Y-00282D01*
X-007033Y-002903D01*
X-00695Y-002404D02*
X-007283D01*
Y-00232D01*
X-0072Y-002237D01*
X-00695D01*
X-0072D01*
X-007283Y-002154D01*
X-0072Y-00207D01*
X-00695D01*
Y-001904D02*
X-007283D01*
Y-00182D01*
X-0072Y-001737D01*
X-00695D01*
X-0072D01*
X-007283Y-001654D01*
X-0072Y-001571D01*
X-00695D01*
X-01725Y-02925D02*
X-01685D01*
X-01705D01*
Y-02985D01*
X-01665Y-02945D02*
Y-02975D01*
X-01655Y-02985D01*
X-01625D01*
Y-02945D01*
X-01605D02*
Y-02985D01*
Y-02965D01*
X-01595Y-02955D01*
X-01585Y-02945D01*
X-01575D01*
X-015451Y-02985D02*
Y-02945D01*
X-015151D01*
X-015051Y-02955D01*
Y-02985D01*
X-014251D02*
Y-02925D01*
X-013951D01*
X-013851Y-02935D01*
Y-02955D01*
X-013951Y-02965D01*
X-014251D01*
X-013551Y-02985D02*
X-013351D01*
X-013251Y-02975D01*
Y-02955D01*
X-013351Y-02945D01*
X-013551D01*
X-013651Y-02955D01*
Y-02975D01*
X-013551Y-02985D01*
X-013051Y-02945D02*
Y-02975D01*
X-012951Y-02985D01*
X-012851Y-02975D01*
X-012751Y-02985D01*
X-012651Y-02975D01*
Y-02945D01*
X-012152Y-02985D02*
X-012352D01*
X-012452Y-02975D01*
Y-02955D01*
X-012352Y-02945D01*
X-012152D01*
X-012052Y-02955D01*
Y-02965D01*
X-012452D01*
X-011852Y-02945D02*
Y-02985D01*
Y-02965D01*
X-011752Y-02955D01*
X-011652Y-02945D01*
X-011552D01*
X-010352Y-02925D02*
X-010552D01*
X-010652Y-02935D01*
Y-02975D01*
X-010552Y-02985D01*
X-010352D01*
X-010252Y-02975D01*
Y-02935D01*
X-010352Y-02925D01*
X-009952Y-02985D02*
Y-02935D01*
Y-02955D01*
X-010052D01*
X-009852D01*
X-009952D01*
Y-02935D01*
X-009852Y-02925D01*
X-009453Y-02985D02*
Y-02935D01*
Y-02955D01*
X-009552D01*
X-009353D01*
X-009453D01*
Y-02935D01*
X-009353Y-02925D01*
X-01795Y-0301D02*
Y-0307D01*
X-01765D01*
X-01755Y-0306D01*
Y-0305D01*
X-01765Y-0304D01*
X-01795D01*
X-01765D01*
X-01755Y-0303D01*
Y-0302D01*
X-01765Y-0301D01*
X-01795D01*
X-01705Y-0307D02*
X-01725D01*
X-01735Y-0306D01*
Y-0304D01*
X-01725Y-0303D01*
X-01705D01*
X-01695Y-0304D01*
Y-0305D01*
X-01735D01*
X-01665Y-0307D02*
Y-0302D01*
Y-0304D01*
X-01675D01*
X-01655D01*
X-01665D01*
Y-0302D01*
X-01655Y-0301D01*
X-016151Y-0307D02*
X-015951D01*
X-015851Y-0306D01*
Y-0304D01*
X-015951Y-0303D01*
X-016151D01*
X-016251Y-0304D01*
Y-0306D01*
X-016151Y-0307D01*
X-015651Y-0303D02*
Y-0307D01*
Y-0305D01*
X-015551Y-0304D01*
X-015451Y-0303D01*
X-015351D01*
X-014751Y-0307D02*
X-014951D01*
X-015051Y-0306D01*
Y-0304D01*
X-014951Y-0303D01*
X-014751D01*
X-014651Y-0304D01*
Y-0305D01*
X-015051D01*
X-013851Y-0307D02*
Y-0301D01*
X-013551D01*
X-013451Y-0302D01*
Y-0304D01*
X-013551Y-0305D01*
X-013851D01*
X-013651D02*
X-013451Y-0307D01*
X-012952D02*
X-013152D01*
X-013252Y-0306D01*
Y-0304D01*
X-013152Y-0303D01*
X-012952D01*
X-012852Y-0304D01*
Y-0305D01*
X-013252D01*
X-012652Y-0309D02*
Y-0303D01*
X-012352D01*
X-012252Y-0304D01*
Y-0306D01*
X-012352Y-0307D01*
X-012652D01*
X-012052D02*
X-011852D01*
X-011952D01*
Y-0301D01*
X-012052D01*
X-011452Y-0303D02*
X-011252D01*
X-011152Y-0304D01*
Y-0307D01*
X-011452D01*
X-011552Y-0306D01*
X-011452Y-0305D01*
X-011152D01*
X-010552Y-0303D02*
X-010852D01*
X-010952Y-0304D01*
Y-0306D01*
X-010852Y-0307D01*
X-010552D01*
X-010352D02*
X-010153D01*
X-010252D01*
Y-0303D01*
X-010352D01*
X-009853Y-0307D02*
Y-0303D01*
X-009553D01*
X-009453Y-0304D01*
Y-0307D01*
X-009053Y-0309D02*
X-008953D01*
X-008853Y-0308D01*
Y-0303D01*
X-009153D01*
X-009253Y-0304D01*
Y-0306D01*
X-009153Y-0307D01*
X-008853D01*
X-01655Y-02885D02*
X-01645Y-02895D01*
X-01625D01*
X-01615Y-02885D01*
Y-02845D01*
X-01625Y-02835D01*
X-01645D01*
X-01655Y-02845D01*
Y-02855D01*
X-01645Y-02865D01*
X-01615D01*
X-01595Y-02835D02*
Y-02875D01*
X-01575Y-02895D01*
X-01555Y-02875D01*
Y-02835D01*
X-014751Y-02895D02*
Y-02835D01*
X-014351Y-02895D01*
Y-02835D01*
X-014151Y-02895D02*
X-013951D01*
X-014051D01*
Y-02855D01*
X-014151D01*
X-013651Y-02895D02*
Y-02835D01*
X-013451Y-02855D01*
X-013251Y-02835D01*
Y-02895D01*
X-013051Y-02835D02*
Y-02895D01*
Y-02865D01*
X-012951Y-02855D01*
X-012751D01*
X-012651Y-02865D01*
Y-02895D01*
X-011852Y-02835D02*
Y-02895D01*
X-011552D01*
X-011452Y-02885D01*
Y-02875D01*
X-011552Y-02865D01*
X-011852D01*
X-011552D01*
X-011452Y-02855D01*
Y-02845D01*
X-011552Y-02835D01*
X-011852D01*
X-011152Y-02855D02*
X-010952D01*
X-010852Y-02865D01*
Y-02895D01*
X-011152D01*
X-011252Y-02885D01*
X-011152Y-02875D01*
X-010852D01*
X-010552Y-02845D02*
Y-02855D01*
X-010652D01*
X-010452D01*
X-010552D01*
Y-02885D01*
X-010452Y-02895D01*
X-010052Y-02845D02*
Y-02855D01*
X-010152D01*
X-009952D01*
X-010052D01*
Y-02885D01*
X-009952Y-02895D01*
X0196Y-00715D02*
Y-00755D01*
X0192Y-00715D01*
X0191D01*
X019Y-00725D01*
Y-00745D01*
X0191Y-00755D01*
Y-00695D02*
X019Y-00685D01*
Y-00665D01*
X0191Y-00655D01*
X0195D01*
X0196Y-00665D01*
Y-00685D01*
X0195Y-00695D01*
X0191D01*
X019Y-005751D02*
X0194D01*
X0196Y-005551D01*
X0194Y-005351D01*
X019D01*
X0196Y-005151D02*
X0192D01*
X019Y-004951D01*
X0192Y-004751D01*
X0196D01*
X0193D01*
Y-005151D01*
X0191Y-004151D02*
X019Y-004251D01*
Y-004451D01*
X0191Y-004551D01*
X0195D01*
X0196Y-004451D01*
Y-004251D01*
X0195Y-004151D01*
X0196Y-003351D02*
X019D01*
X0192Y-003151D01*
X019Y-002951D01*
X0196D01*
Y-002752D02*
X0192D01*
X019Y-002552D01*
X0192Y-002352D01*
X0196D01*
X0193D01*
Y-002752D01*
X019Y-002152D02*
X0196Y-001752D01*
X019D02*
X0196Y-002152D01*
X-01955Y-0038D02*
Y-003633D01*
Y-003717D01*
X-01905D01*
Y-0038D01*
Y-003633D01*
Y-003383D02*
X-019383D01*
Y-003134D01*
X-0193Y-00305D01*
X-01905D01*
X-018883Y-002884D02*
X-019383D01*
Y-002634D01*
X-0193Y-00255D01*
X-019133D01*
X-01905Y-002634D01*
Y-002884D01*
X-019383Y-002384D02*
X-019133D01*
X-01905Y-0023D01*
Y-002051D01*
X-019383D01*
X-019467Y-001801D02*
X-019383D01*
Y-001884D01*
Y-001717D01*
Y-001801D01*
X-019133D01*
X-01905Y-001717D01*
X-0056Y-02885D02*
X-0055Y-02895D01*
X-0053D01*
X-0052Y-02885D01*
Y-02845D01*
X-0053Y-02835D01*
X-0055D01*
X-0056Y-02845D01*
Y-02855D01*
X-0055Y-02865D01*
X-0052D01*
X-005Y-02835D02*
Y-02875D01*
X-0048Y-02895D01*
X-0046Y-02875D01*
Y-02835D01*
X-003801Y-02895D02*
Y-02835D01*
X-003401Y-02895D01*
Y-02835D01*
X-003201Y-02895D02*
X-003001D01*
X-003101D01*
Y-02855D01*
X-003201D01*
X-002701Y-02895D02*
Y-02835D01*
X-002501Y-02855D01*
X-002301Y-02835D01*
Y-02895D01*
X-002101Y-02835D02*
Y-02895D01*
Y-02865D01*
X-002001Y-02855D01*
X-001801D01*
X-001701Y-02865D01*
Y-02895D01*
X-000902Y-02835D02*
Y-02895D01*
X-000602D01*
X-000502Y-02885D01*
Y-02875D01*
X-000602Y-02865D01*
X-000902D01*
X-000602D01*
X-000502Y-02855D01*
Y-02845D01*
X-000602Y-02835D01*
X-000902D01*
X-000202Y-02855D02*
X-000002D01*
X000098Y-02865D01*
Y-02895D01*
X-000202D01*
X-000302Y-02885D01*
X-000202Y-02875D01*
X000098D01*
X000398Y-02845D02*
Y-02855D01*
X000298D01*
X000498D01*
X000398D01*
Y-02885D01*
X000498Y-02895D01*
X000898Y-02845D02*
Y-02855D01*
X000798D01*
X000998D01*
X000898D01*
Y-02885D01*
X000998Y-02895D01*
X-007Y-0301D02*
Y-0307D01*
X-0067D01*
X-0066Y-0306D01*
Y-0305D01*
X-0067Y-0304D01*
X-007D01*
X-0067D01*
X-0066Y-0303D01*
Y-0302D01*
X-0067Y-0301D01*
X-007D01*
X-0061Y-0307D02*
X-0063D01*
X-0064Y-0306D01*
Y-0304D01*
X-0063Y-0303D01*
X-0061D01*
X-006Y-0304D01*
Y-0305D01*
X-0064D01*
X-0057Y-0307D02*
Y-0302D01*
Y-0304D01*
X-0058D01*
X-0056D01*
X-0057D01*
Y-0302D01*
X-0056Y-0301D01*
X-005201Y-0307D02*
X-005001D01*
X-004901Y-0306D01*
Y-0304D01*
X-005001Y-0303D01*
X-005201D01*
X-005301Y-0304D01*
Y-0306D01*
X-005201Y-0307D01*
X-004701Y-0303D02*
Y-0307D01*
Y-0305D01*
X-004601Y-0304D01*
X-004501Y-0303D01*
X-004401D01*
X-003801Y-0307D02*
X-004001D01*
X-004101Y-0306D01*
Y-0304D01*
X-004001Y-0303D01*
X-003801D01*
X-003701Y-0304D01*
Y-0305D01*
X-004101D01*
X-002901Y-0307D02*
Y-0301D01*
X-002601D01*
X-002501Y-0302D01*
Y-0304D01*
X-002601Y-0305D01*
X-002901D01*
X-002701D02*
X-002501Y-0307D01*
X-002002D02*
X-002202D01*
X-002302Y-0306D01*
Y-0304D01*
X-002202Y-0303D01*
X-002002D01*
X-001902Y-0304D01*
Y-0305D01*
X-002302D01*
X-001702Y-0309D02*
Y-0303D01*
X-001402D01*
X-001302Y-0304D01*
Y-0306D01*
X-001402Y-0307D01*
X-001702D01*
X-001102D02*
X-000902D01*
X-001002D01*
Y-0301D01*
X-001102D01*
X-000502Y-0303D02*
X-000302D01*
X-000202Y-0304D01*
Y-0307D01*
X-000502D01*
X-000602Y-0306D01*
X-000502Y-0305D01*
X-000202D01*
X000398Y-0303D02*
X000098D01*
X-000002Y-0304D01*
Y-0306D01*
X000098Y-0307D01*
X000398D01*
X000598D02*
X000797D01*
X000698D01*
Y-0303D01*
X000598D01*
X001097Y-0307D02*
Y-0303D01*
X001397D01*
X001497Y-0304D01*
Y-0307D01*
X001897Y-0309D02*
X001997D01*
X002097Y-0308D01*
Y-0303D01*
X001797D01*
X001697Y-0304D01*
Y-0306D01*
X001797Y-0307D01*
X002097D01*
X-0063Y-02925D02*
X-0059D01*
X-0061D01*
Y-02985D01*
X-0057Y-02945D02*
Y-02975D01*
X-0056Y-02985D01*
X-0053D01*
Y-02945D01*
X-0051D02*
Y-02985D01*
Y-02965D01*
X-005Y-02955D01*
X-0049Y-02945D01*
X-0048D01*
X-004501Y-02985D02*
Y-02945D01*
X-004201D01*
X-004101Y-02955D01*
Y-02985D01*
X-003301D02*
Y-02925D01*
X-003001D01*
X-002901Y-02935D01*
Y-02955D01*
X-003001Y-02965D01*
X-003301D01*
X-002601Y-02985D02*
X-002401D01*
X-002301Y-02975D01*
Y-02955D01*
X-002401Y-02945D01*
X-002601D01*
X-002701Y-02955D01*
Y-02975D01*
X-002601Y-02985D01*
X-002101Y-02945D02*
Y-02975D01*
X-002001Y-02985D01*
X-001901Y-02975D01*
X-001801Y-02985D01*
X-001701Y-02975D01*
Y-02945D01*
X-001202Y-02985D02*
X-001402D01*
X-001502Y-02975D01*
Y-02955D01*
X-001402Y-02945D01*
X-001202D01*
X-001102Y-02955D01*
Y-02965D01*
X-001502D01*
X-000902Y-02945D02*
Y-02985D01*
Y-02965D01*
X-000802Y-02955D01*
X-000702Y-02945D01*
X-000602D01*
X000598Y-02925D02*
X000398D01*
X000298Y-02935D01*
Y-02975D01*
X000398Y-02985D01*
X000598D01*
X000698Y-02975D01*
Y-02935D01*
X000598Y-02925D01*
X000998Y-02985D02*
Y-02935D01*
Y-02955D01*
X000898D01*
X001098D01*
X000998D01*
Y-02935D01*
X001098Y-02925D01*
X001497Y-02985D02*
Y-02935D01*
Y-02955D01*
X001398D01*
X001597D01*
X001497D01*
Y-02935D01*
X001597Y-02925D01*
X-01845Y-02705D02*
Y-02725D01*
X-01835Y-02735D01*
X-01795D01*
X-01785Y-02725D01*
Y-02705D01*
X-01795Y-02695D01*
X-01835D01*
X-01845Y-02705D01*
X-01765Y-026317D02*
Y-02665D01*
X-017983Y-026317D01*
X-018067D01*
X-01815Y-0264D01*
Y-026567D01*
X-018067Y-02665D01*
X-0141Y-0271D02*
X-0142Y-0272D01*
Y-0274D01*
X-0141Y-0275D01*
X-014D01*
X-0139Y-0274D01*
Y-0272D01*
X-0138Y-0271D01*
X-0137D01*
X-0136Y-0272D01*
Y-0274D01*
X-0137Y-0275D01*
X-0136Y-0266D02*
Y-0268D01*
X-0137Y-0269D01*
X-0139D01*
X-014Y-0268D01*
Y-0266D01*
X-0139Y-0265D01*
X-0138D01*
Y-0269D01*
X-0136Y-026D02*
Y-0262D01*
X-0137Y-0263D01*
X-0139D01*
X-014Y-0262D01*
Y-026D01*
X-0139Y-025901D01*
X-0138D01*
Y-0263D01*
X-014Y-025701D02*
Y-025601D01*
X-0139D01*
Y-025701D01*
X-014D01*
X-0137D02*
Y-025601D01*
X-0136D01*
Y-025701D01*
X-0137D01*
X-0142Y-024601D02*
X-0136D01*
X-0139D01*
X-014Y-024501D01*
Y-024301D01*
X-0139Y-024201D01*
X-0136D01*
X-0141Y-023901D02*
X-014D01*
Y-024001D01*
Y-023801D01*
Y-023901D01*
X-0137D01*
X-0136Y-023801D01*
X-0141Y-023401D02*
X-014D01*
Y-023501D01*
Y-023301D01*
Y-023401D01*
X-0137D01*
X-0136Y-023301D01*
X-0134Y-023001D02*
X-014D01*
Y-022702D01*
X-0139Y-022602D01*
X-0137D01*
X-0136Y-022702D01*
Y-023001D01*
X-014Y-022402D02*
Y-022302D01*
X-0139D01*
Y-022402D01*
X-014D01*
X-0137D02*
Y-022302D01*
X-0136D01*
Y-022402D01*
X-0137D01*
X-0136Y-021902D02*
X-014Y-021502D01*
X-0136Y-021302D02*
X-014Y-020902D01*
X-0136Y-020702D02*
X-0142D01*
X-0136Y-020302D01*
X-0142D01*
X-014Y-020102D02*
X-0137D01*
X-0136Y-020002D01*
X-0137Y-019902D01*
X-0136Y-019802D01*
X-0137Y-019703D01*
X-014D01*
X-0136Y-019503D02*
X-014D01*
X-0142Y-019303D01*
X-014Y-019103D01*
X-0136D01*
X-0139D01*
Y-019503D01*
X-014Y-018903D02*
X-0136Y-018703D01*
X-014Y-018503D01*
X-0141Y-017903D02*
X-0142Y-018003D01*
Y-018203D01*
X-0141Y-018303D01*
X-0137D01*
X-0136Y-018203D01*
Y-018003D01*
X-0137Y-017903D01*
X-0139D01*
Y-018103D01*
X-014Y-017703D02*
X-0137D01*
X-0136Y-017603D01*
Y-017303D01*
X-014D01*
Y-017103D02*
X-0137D01*
X-0136Y-017003D01*
Y-016703D01*
X-0135D01*
X-0134Y-016803D01*
Y-016903D01*
X-0136Y-016703D02*
X-014D01*
X-0136Y-016504D02*
X-0137D01*
Y-016404D01*
X-0136D01*
Y-016504D01*
X-014Y-015604D02*
Y-015904D01*
X-0139Y-016004D01*
X-0137D01*
X-0136Y-015904D01*
Y-015604D01*
Y-015304D02*
Y-015104D01*
X-0137Y-015004D01*
X-0139D01*
X-014Y-015104D01*
Y-015304D01*
X-0139Y-015404D01*
X-0137D01*
X-0136Y-015304D01*
Y-014804D02*
X-014D01*
Y-014704D01*
X-0139Y-014604D01*
X-0136D01*
X-0139D01*
X-014Y-014504D01*
X-0139Y-014404D01*
X-0136D01*
X-0172Y-0273D02*
X-0168D01*
X-0166Y-0271D01*
X-0168Y-0269D01*
X-0172D01*
X-0166Y-0264D02*
Y-0266D01*
X-0167Y-0267D01*
X-0169D01*
X-017Y-0266D01*
Y-0264D01*
X-0169Y-0263D01*
X-0168D01*
Y-0267D01*
X-017Y-0261D02*
X-0166D01*
X-0168D01*
X-0169Y-026D01*
X-017Y-0259D01*
Y-0258D01*
X-0166Y-025501D02*
Y-025201D01*
X-0167Y-025101D01*
X-0168Y-025201D01*
Y-025401D01*
X-0169Y-025501D01*
X-017Y-025401D01*
Y-025101D01*
X-0166Y-024901D02*
Y-024701D01*
Y-024801D01*
X-017D01*
Y-024901D01*
X-0166Y-024301D02*
Y-024101D01*
X-0167Y-024001D01*
X-0169D01*
X-017Y-024101D01*
Y-024301D01*
X-0169Y-024401D01*
X-0167D01*
X-0166Y-024301D01*
Y-023801D02*
X-017D01*
Y-023501D01*
X-0169Y-023401D01*
X-0166D01*
Y-022602D02*
Y-022402D01*
Y-022502D01*
X-0172D01*
X-0171Y-022602D01*
X-0166Y-022102D02*
X-0167D01*
Y-022002D01*
X-0166D01*
Y-022102D01*
Y-021602D02*
Y-021402D01*
Y-021502D01*
X-0172D01*
X-0171Y-021602D01*
Y-020102D02*
X-0172Y-020202D01*
Y-020402D01*
X-0171Y-020502D01*
X-017D01*
X-0169Y-020402D01*
Y-020202D01*
X-0168Y-020102D01*
X-0167D01*
X-0166Y-020202D01*
Y-020402D01*
X-0167Y-020502D01*
X-0166Y-019602D02*
Y-019802D01*
X-0167Y-019902D01*
X-0169D01*
X-017Y-019802D01*
Y-019602D01*
X-0169Y-019503D01*
X-0168D01*
Y-019902D01*
X-0164Y-019303D02*
X-017D01*
Y-019003D01*
X-0169Y-018903D01*
X-0167D01*
X-0166Y-019003D01*
Y-019303D01*
X-0171Y-018603D02*
X-017D01*
Y-018703D01*
Y-018503D01*
Y-018603D01*
X-0167D01*
X-0166Y-018503D01*
Y-017203D02*
Y-017603D01*
X-017Y-017203D01*
X-0171D01*
X-0172Y-017303D01*
Y-017503D01*
X-0171Y-017603D01*
Y-017003D02*
X-0172Y-016903D01*
Y-016703D01*
X-0171Y-016603D01*
X-0167D01*
X-0166Y-016703D01*
Y-016903D01*
X-0167Y-017003D01*
X-0171D01*
X-0166Y-016404D02*
Y-016204D01*
Y-016304D01*
X-0172D01*
X-0171Y-016404D01*
X-0166Y-015904D02*
Y-015704D01*
Y-015804D01*
X-0172D01*
X-0171Y-015904D01*
X-0151Y-027D02*
X-0152Y-0271D01*
Y-0273D01*
X-0151Y-0274D01*
X-0147D01*
X-0146Y-0273D01*
Y-0271D01*
X-0147Y-027D01*
X-0151Y-0264D02*
X-0152Y-0265D01*
Y-0267D01*
X-0151Y-0268D01*
X-0147D01*
X-0146Y-0267D01*
Y-0265D01*
X-0147Y-0264D01*
X-0152Y-025601D02*
X-0146D01*
Y-025301D01*
X-0147Y-025201D01*
X-0148D01*
X-0149Y-025301D01*
Y-025601D01*
Y-025301D01*
X-015Y-025201D01*
X-0151D01*
X-0152Y-025301D01*
Y-025601D01*
Y-025001D02*
X-0151D01*
X-0149Y-024801D01*
X-0151Y-024601D01*
X-0152D01*
X-0149Y-024801D02*
X-0146D01*
X-0149Y-024401D02*
Y-024001D01*
X-0146Y-023801D02*
X-0152D01*
X-0146Y-023401D01*
X-0152D01*
Y-023201D02*
X-0146D01*
Y-022901D01*
X-0147Y-022801D01*
X-0151D01*
X-0152Y-022901D01*
Y-023201D01*
X-0151Y-022002D02*
X-0152Y-021902D01*
Y-021702D01*
X-0151Y-021602D01*
X-015D01*
X-0149Y-021702D01*
Y-021802D01*
Y-021702D01*
X-0148Y-021602D01*
X-0147D01*
X-0146Y-021702D01*
Y-021902D01*
X-0147Y-022002D01*
X-0146Y-021402D02*
X-0147D01*
Y-021302D01*
X-0146D01*
Y-021402D01*
X-0151Y-020902D02*
X-0152Y-020802D01*
Y-020602D01*
X-0151Y-020502D01*
X-0147D01*
X-0146Y-020602D01*
Y-020802D01*
X-0147Y-020902D01*
X-0151D01*
X-0146Y-019702D02*
X-015D01*
X-0152Y-019503D01*
X-015Y-019303D01*
X-0146D01*
X-0149D01*
Y-019702D01*
X-0151Y-019003D02*
X-015D01*
Y-019103D01*
Y-018903D01*
Y-019003D01*
X-0147D01*
X-0146Y-018903D01*
X-0151Y-018503D02*
X-015D01*
Y-018603D01*
Y-018403D01*
Y-018503D01*
X-0147D01*
X-0146Y-018403D01*
X-015Y-018103D02*
X-0146D01*
X-0148D01*
X-0149Y-018003D01*
X-015Y-017903D01*
Y-017803D01*
X-0146Y-017503D02*
Y-017303D01*
Y-017403D01*
X-015D01*
Y-017503D01*
X-0152Y-017003D02*
X-0146D01*
Y-016703D01*
X-0147Y-016603D01*
X-0148D01*
X-0149D01*
X-015Y-016703D01*
Y-017003D01*
X-0146Y-016404D02*
X-0147D01*
Y-016304D01*
X-0146D01*
Y-016404D01*
Y-015304D02*
X-0152D01*
Y-015004D01*
X-0151Y-014904D01*
X-0149D01*
X-0148Y-015004D01*
Y-015304D01*
Y-015104D02*
X-0146Y-014904D01*
Y-014404D02*
Y-014604D01*
X-0147Y-014704D01*
X-0149D01*
X-015Y-014604D01*
Y-014404D01*
X-0149Y-014304D01*
X-0148D01*
Y-014704D01*
X-0144Y-013704D02*
X-015D01*
Y-014004D01*
X-0149Y-014104D01*
X-0147D01*
X-0146Y-014004D01*
Y-013704D01*
Y-013505D02*
X-0147D01*
Y-013405D01*
X-0146D01*
Y-013505D01*
X-0161Y-027D02*
X-0162Y-0271D01*
Y-0273D01*
X-0161Y-0274D01*
X-0157D01*
X-0156Y-0273D01*
Y-0271D01*
X-0157Y-027D01*
X-016Y-0268D02*
X-0156D01*
X-0158D01*
X-0159Y-0267D01*
X-016Y-0266D01*
Y-0265D01*
X-0156Y-0259D02*
Y-0261D01*
X-0157Y-0262D01*
X-0159D01*
X-016Y-0261D01*
Y-0259D01*
X-0159Y-025801D01*
X-0158D01*
Y-0262D01*
X-016Y-025501D02*
Y-025301D01*
X-0159Y-025201D01*
X-0156D01*
Y-025501D01*
X-0157Y-025601D01*
X-0158Y-025501D01*
Y-025201D01*
X-0161Y-024901D02*
X-016D01*
Y-025001D01*
Y-024801D01*
Y-024901D01*
X-0157D01*
X-0156Y-024801D01*
Y-024501D02*
Y-024301D01*
Y-024401D01*
X-016D01*
Y-024501D01*
Y-024001D02*
X-0156Y-023801D01*
X-016Y-023601D01*
X-0156Y-023101D02*
Y-023301D01*
X-0157Y-023401D01*
X-0159D01*
X-016Y-023301D01*
Y-023101D01*
X-0159Y-023001D01*
X-0158D01*
Y-023401D01*
X-0161Y-021802D02*
X-0162Y-021902D01*
Y-022102D01*
X-0161Y-022202D01*
X-0157D01*
X-0156Y-022102D01*
Y-021902D01*
X-0157Y-021802D01*
X-0156Y-021502D02*
Y-021302D01*
X-0157Y-021202D01*
X-0159D01*
X-016Y-021302D01*
Y-021502D01*
X-0159Y-021602D01*
X-0157D01*
X-0156Y-021502D01*
Y-021002D02*
X-016D01*
Y-020902D01*
X-0159Y-020802D01*
X-0156D01*
X-0159D01*
X-016Y-020702D01*
X-0159Y-020602D01*
X-0156D01*
Y-020402D02*
X-016D01*
Y-020302D01*
X-0159Y-020202D01*
X-0156D01*
X-0159D01*
X-016Y-020102D01*
X-0159Y-020002D01*
X-0156D01*
Y-019702D02*
Y-019503D01*
X-0157Y-019403D01*
X-0159D01*
X-016Y-019503D01*
Y-019702D01*
X-0159Y-019802D01*
X-0157D01*
X-0156Y-019702D01*
Y-019203D02*
X-016D01*
Y-018903D01*
X-0159Y-018803D01*
X-0156D01*
Y-018603D02*
Y-018303D01*
X-0157Y-018203D01*
X-0158Y-018303D01*
Y-018503D01*
X-0159Y-018603D01*
X-016Y-018503D01*
Y-018203D01*
X-0162Y-017403D02*
X-0156D01*
Y-017003D01*
Y-016803D02*
Y-016603D01*
Y-016703D01*
X-016D01*
Y-016803D01*
Y-015904D02*
Y-016204D01*
X-0159Y-016304D01*
X-0157D01*
X-0156Y-016204D01*
Y-015904D01*
Y-015404D02*
Y-015604D01*
X-0157Y-015704D01*
X-0159D01*
X-016Y-015604D01*
Y-015404D01*
X-0159Y-015304D01*
X-0158D01*
Y-015704D01*
X-0156Y-015104D02*
X-016D01*
Y-014804D01*
X-0159Y-014704D01*
X-0156D01*
Y-014504D02*
Y-014204D01*
X-0157Y-014104D01*
X-0158Y-014204D01*
Y-014404D01*
X-0159Y-014504D01*
X-016Y-014404D01*
Y-014104D01*
X-0156Y-013604D02*
Y-013804D01*
X-0157Y-013904D01*
X-0159D01*
X-016Y-013804D01*
Y-013604D01*
X-0159Y-013504D01*
X-0158D01*
Y-013904D01*
X-0178Y-0257D02*
X-018Y-0259D01*
X-0182D01*
X-0184Y-0257D01*
Y-0251D02*
Y-0253D01*
X-0183Y-0254D01*
X-0179D01*
X-0178Y-0253D01*
Y-0251D01*
X-0179Y-025D01*
X-0183D01*
X-0184Y-0251D01*
Y-0248D02*
X-0178D01*
Y-0245D01*
X-0179Y-0244D01*
X-018D01*
X-0181D01*
X-0182Y-0245D01*
Y-0248D01*
X-0176Y-024201D02*
Y-024101D01*
X-0177Y-024001D01*
X-0182D01*
X-0178Y-023301D02*
Y-023501D01*
X-0179Y-023601D01*
X-0181D01*
X-0182Y-023501D01*
Y-023301D01*
X-0181Y-023201D01*
X-018D01*
Y-023601D01*
X-0182Y-022601D02*
Y-022901D01*
X-0181Y-023001D01*
X-0179D01*
X-0178Y-022901D01*
Y-022601D01*
X-0183Y-022301D02*
X-0182D01*
Y-022401D01*
Y-022201D01*
Y-022301D01*
X-0179D01*
X-0178Y-022201D01*
Y-021901D02*
Y-021701D01*
Y-021801D01*
X-0182D01*
Y-021901D01*
Y-021401D02*
X-0178Y-021202D01*
X-0182Y-021002D01*
X-0178Y-020502D02*
Y-020702D01*
X-0179Y-020802D01*
X-0181D01*
X-0182Y-020702D01*
Y-020502D01*
X-0181Y-020402D01*
X-018D01*
Y-020802D01*
X-0178Y-019602D02*
X-018Y-019402D01*
X-0182D01*
X-0184Y-019602D01*
Y-018502D02*
X-0178D01*
X-0181D01*
Y-018103D01*
X-0184D01*
X-0178D01*
Y-017903D02*
X-0184D01*
Y-017603D01*
X-0183Y-017503D01*
X-0181D01*
X-018Y-017603D01*
Y-017903D01*
X-0178Y-017303D02*
X-0182D01*
X-0184Y-017103D01*
X-0182Y-016903D01*
X-0178D01*
X-0181D01*
Y-017303D01*
X-01755Y-019917D02*
Y-02025D01*
X-017883Y-019917D01*
X-017967D01*
X-01805Y-02D01*
Y-020167D01*
X-017967Y-02025D01*
X-00697Y-005037D02*
Y-00537D01*
X-007303Y-005037D01*
X-007387D01*
X-00747Y-00512D01*
Y-005287D01*
X-007387Y-00537D01*
Y-00487D02*
X-00747Y-004787D01*
Y-00462D01*
X-007387Y-004537D01*
X-007053D01*
X-00697Y-00462D01*
Y-004787D01*
X-007053Y-00487D01*
X-007387D01*
X-00697Y-00437D02*
X-007303D01*
Y-004287D01*
X-00722Y-004204D01*
X-00697D01*
X-00722D01*
X-007303Y-00412D01*
X-00722Y-004037D01*
X-00697D01*
Y-00387D02*
X-007303D01*
Y-003787D01*
X-00722Y-003704D01*
X-00697D01*
X-00722D01*
X-007303Y-003621D01*
X-00722Y-003537D01*
X-00697D01*
X01575Y-008317D02*
Y-00865D01*
X015417Y-008317D01*
X015333D01*
X01525Y-0084D01*
Y-008567D01*
X015333Y-00865D01*
X01495Y-00905D02*
Y-00925D01*
X01505Y-00935D01*
X01545D01*
X01555Y-00925D01*
Y-00905D01*
X01545Y-00895D01*
X01505D01*
X01495Y-00905D01*
X0149Y-0078D02*
X0155D01*
X0152D01*
Y-0074D01*
X0149D01*
X0155D01*
Y-0072D02*
X0149D01*
Y-0069D01*
X015Y-0068D01*
X0152D01*
X0153Y-0069D01*
Y-0072D01*
X0155Y-0066D02*
X0151D01*
X0149Y-0064D01*
X0151Y-006201D01*
X0155D01*
X0152D01*
Y-0066D01*
D14*
X-00437Y-02035D02*
X-00387Y-02085D01*
X-00337D01*
X-00287Y-02035D01*
X-00411Y-01974D02*
Y-01949D01*
X-00386D01*
Y-01974D01*
X-00411D01*
X-00336D02*
Y-01949D01*
X-00311D01*
Y-01974D01*
X-00336D01*
D15*
X009883Y-024308D02*
X012717D01*
X004408Y-027417D02*
Y-024583D01*
X013292Y-024017D02*
Y-021183D01*
X017708Y-023417D02*
Y-020583D01*
X005583Y-015508D02*
X008417D01*
X-000817Y-007292D02*
X002017D01*
X005583Y-014308D02*
X008417D01*
X009883Y-025508D02*
X012717D01*
X0004Y-0025D02*
X0032D01*
X0004Y-0059D02*
X0032D01*
X-0028D02*
X0D01*
X-0028Y-0025D02*
X0D01*
X012638Y-0296D02*
X01736D01*
X017362Y-0312D02*
Y-0296D01*
X01266Y-0312D02*
X01736D01*
X012638D02*
Y-0296D01*
X004838D02*
X00956D01*
X009562Y-0312D02*
Y-0296D01*
X00486Y-0312D02*
X00956D01*
X004838D02*
Y-0296D01*
X011199Y-0088D02*
Y-0068D01*
X010199D02*
X011199D01*
X010199Y-0088D02*
Y-0068D01*
Y-0088D02*
X011199D01*
X010699Y-0068D02*
Y-0062D01*
X0107Y-0094D02*
Y-0088D01*
X010099Y-0102D02*
Y-0082D01*
X009099D02*
X010099D01*
X009099Y-0102D02*
Y-0082D01*
Y-0102D02*
X010099D01*
X009599Y-0082D02*
Y-0076D01*
X0096Y-0108D02*
Y-0102D01*
X004499Y-0188D02*
Y-0168D01*
X003499D02*
X004499D01*
X003499Y-0188D02*
Y-0168D01*
Y-0188D02*
X004499D01*
X003999Y-0168D02*
Y-0162D01*
X004Y-0194D02*
Y-0188D01*
X004499Y-0136D02*
Y-0116D01*
X003499D02*
X004499D01*
X003499Y-0136D02*
Y-0116D01*
Y-0136D02*
X004499D01*
X003999Y-0116D02*
Y-011D01*
X004Y-0142D02*
Y-0136D01*
X-0151Y-0068D02*
Y-0054D01*
X-0141Y-0068D02*
Y-0054D01*
X-0151Y-00865D02*
Y-00725D01*
X-0141Y-00865D02*
Y-00725D01*
X-0091Y-00815D02*
X-0077D01*
X-0091Y-00915D02*
X-0077D01*
X-00085Y-00905D02*
Y-00765D01*
X00015Y-00905D02*
Y-00765D01*
D17*
X-0055Y-0102D02*
G03*
X-0055Y-0102I-000141J0D01*
G01*
X0048Y-0105D02*
G03*
X0048Y-0105I-000141J0D01*
G01*
X0049Y-0172D02*
G03*
X0049Y-0172I-000141J0D01*
G01*
X0054Y-028D02*
G03*
X0054Y-028I-000141J0D01*
G01*
X0076Y-02102D02*
X0116D01*
X0032D02*
X0072D01*
X01528Y-024D02*
Y-02D01*
X01748Y-024D02*
Y-02D01*
D29*
X-00194Y-019785D02*
D03*
X-00535Y-019845D02*
D03*
D30*
X-019685Y-0315D02*
Y0D01*
X019685D01*
X-019685Y-0315D02*
X019685D01*
Y0D01*
D66*
X0097Y-0007D02*
X0107D01*
Y-0047D02*
Y-0007D01*
X0097Y-0047D02*
Y-0007D01*
Y-0047D02*
X0107D01*
X012557Y-029451D02*
X014643D01*
X012557Y-028349D02*
X014643D01*
X012557Y-029451D02*
Y-028349D01*
X018351Y-010043D02*
Y-007957D01*
X017249Y-010043D02*
Y-007957D01*
Y-010043D02*
X018351D01*
X012357Y-010249D02*
X014443D01*
X012357Y-011351D02*
X014443D01*
Y-010249D01*
X017351Y-028043D02*
Y-025957D01*
X016249Y-028043D02*
Y-025957D01*
Y-028043D02*
X017351D01*
X017649D02*
Y-025957D01*
X018751Y-028043D02*
Y-025957D01*
X017649D02*
X018751D01*
X004957Y-028349D02*
X007043D01*
X004957Y-029451D02*
X007043D01*
Y-028349D01*
X-0137Y-0017D02*
X-0127D01*
Y-0047D02*
Y-0017D01*
X-0137Y-0047D02*
X-0127D01*
X-0137D02*
Y-0017D01*
D67*
X009883Y-025292D02*
X01272D01*
X005392Y-027417D02*
Y-02458D01*
X012308Y-02402D02*
Y-021183D01*
X018692Y-023417D02*
Y-02058D01*
X005583Y-016492D02*
X00842D01*
X-00082Y-006308D02*
X002017D01*
X005583Y-015292D02*
X00842D01*
X009883Y-026492D02*
X01272D01*
D68*
X-0125Y-0052D02*
X-01224D01*
X-0125Y-0062D02*
Y-0052D01*
Y-0062D02*
X-01224D01*
X-01024D02*
X-01D01*
Y-0052D01*
X-01024D02*
X-01D01*
D69*
X00035Y-006625D02*
X000275Y-00655D01*
X000125D01*
X00005Y-006625D01*
Y-006925D01*
X000125Y-007D01*
X000275D01*
X00035Y-006925D01*
X0005Y-007D02*
X00065D01*
X000575D01*
Y-00655D01*
X0005Y-006625D01*
X000875D02*
X00095Y-00655D01*
X0011D01*
X001175Y-006625D01*
Y-006925D01*
X0011Y-007D01*
X00095D01*
X000875Y-006925D01*
Y-006625D01*
X004825Y-0263D02*
X00475Y-026375D01*
Y-026525D01*
X004825Y-0266D01*
X005125D01*
X0052Y-026525D01*
Y-026375D01*
X005125Y-0263D01*
X0052Y-02615D02*
Y-026D01*
Y-026075D01*
X00475D01*
X004825Y-02615D01*
X00475Y-025475D02*
Y-025775D01*
X004975D01*
X0049Y-025625D01*
Y-02555D01*
X004975Y-025475D01*
X005125D01*
X0052Y-02555D01*
Y-0257D01*
X005125Y-025775D01*
D70*
X014526Y-0289D02*
D03*
X012473Y-010798D02*
D03*
X005074Y-0289D02*
D03*
D71*
X0178Y-008075D02*
D03*
X016801Y-026073D02*
D03*
X0182Y-027927D02*
D03*
M02*
